<svg xmlns="http://www.w3.org/2000/svg" viewBox="0 0 137.9306 102.83154" role="img" aria-label="MXroute Manager">
  <path fill="#5cdd8d" d="M 56.264751,77.670587 V 180.13329 h 17.569727 c 1.824313,0 5.435016,0.69597 7.046035,-0.16878 0.798421,-0.42855 1.442458,-1.45805 2.031882,-2.13006 1.334642,-1.52164 2.651451,-3.05676 3.964321,-4.59769 4.281889,-5.02575 8.449445,-10.39273 13.066045,-15.10669 v -0.16419 c -2.812517,-2.93868 -5.354643,-6.15306 -8.054191,-9.19537 -0.613905,-0.69186 -1.938203,-2.9217 -2.945015,-2.9217 -0.502115,0 -0.884069,0.61804 -1.17323,0.95139 -0.948206,1.09318 -1.900699,2.18236 -2.839218,3.28393 -2.765853,3.2464 -5.657805,6.39565 -8.368398,9.68799 -1.366662,1.65995 -2.397459,3.6122 -4.698669,3.61246 V 93.269876 h 15.599291 c 1.534017,0 4.623959,-0.585996 5.864298,0.422415 1.591605,1.29399 2.853356,3.283479 4.198327,4.832082 3.038954,3.499037 6.090664,6.987607 9.104644,10.508997 1.08796,1.27114 2.19732,2.52121 3.30306,3.77667 0.36337,0.41257 0.87637,1.27967 1.50332,1.27967 0.98498,0 2.34163,-2.2393 2.9474,-2.9217 2.65347,-2.98905 5.26056,-6.0214 7.89,-9.03117 l -6.05005,-7.224932 -9.10112,-10.508996 -3.99104,-4.597685 -2.0424,-2.035561 -4.102663,-0.09907 h -9.19537 -31.526986 m 61.247729,61.904534 c 1.65216,-2.37333 3.78403,-4.52073 5.6526,-6.73232 0.43634,-0.51641 1.42307,-2.15318 2.22674,-1.93648 0.81555,0.2199 1.62821,1.64877 2.15846,2.26489 1.62291,1.88567 3.634,5.3431 5.8899,6.40391 2.29425,-3.26977 5.39894,-6.20404 8.05419,-9.19537 0.62617,-0.70542 2.70679,-2.46265 2.61294,-3.44825 -0.068,-0.71387 -1.0964,-1.45545 -1.54131,-1.97044 -1.4274,-1.65229 -2.8848,-3.2786 -4.31769,-4.9261 -0.51754,-0.59507 -1.98024,-1.73701 -1.5679,-2.62725 0.92736,-2.00224 3.34337,-3.90929 4.78431,-5.5829 3.49419,-4.05836 6.96705,-8.14595 10.52217,-12.151016 1.59272,-1.794297 3.43345,-5.154576 5.59114,-6.235156 0.76387,-0.382554 1.95825,-0.168762 2.79145,-0.168762 h 6.56812 8.86697 c 0.75447,0 2.45012,-0.331163 2.83376,0.516932 0.66603,1.472335 0.12194,4.276385 0.12194,5.886986 v 14.121446 49.58933 c -2.40738,0 -3.35118,-1.87112 -4.80244,-3.61246 -2.77177,-3.32585 -5.61548,-6.6144 -8.48977,-9.8522 -0.91383,-1.02942 -1.80167,-2.08139 -2.70529,-3.11972 -0.30108,-0.34596 -0.72516,-0.95139 -1.24141,-0.95139 -0.96851,0 -2.41368,2.39791 -3.00254,3.0859 -2.42436,2.83251 -4.88297,6.60764 -7.83726,8.86697 0.86649,1.94407 2.83243,3.6364 4.19958,5.25448 3.21337,3.80323 6.48804,7.55589 9.73627,11.33002 1.13543,1.31926 2.27567,2.63243 3.42292,3.94087 0.48441,0.55249 1.01309,1.42044 1.71666,1.70716 1.84526,0.75196 5.20124,0.0991 7.19704,0.0991 h 17.24132 V 77.670587 h -32.01959 -9.03115 c -1.07869,0 -2.79511,-0.322814 -3.77668,0.168753 -1.22227,0.612133 -2.20029,2.258533 -3.07537,3.279511 -2.0804,2.427186 -4.19749,4.825649 -6.30969,7.224934 -7.87684,8.947503 -15.78221,17.887035 -23.55007,26.929305 -2.35949,2.74659 -4.69389,5.54517 -7.14448,8.21015 -0.74139,0.80627 -2.68589,2.31032 -2.79272,3.44827 -0.0928,0.98839 1.91121,2.58651 2.52526,3.28404 2.613,2.9682 5.26504,7.08036 8.49168,9.35958 m -39.737136,-26.60088 1.122182,9.19536 2.326083,19.37596 4.105076,-3.45066 1.572342,-1.18478 2.71835,2.82921 7.211764,8.21015 28.398889,32.34799 h 0.1642 l 27.87004,-31.85538 7.38723,-8.37435 2.86572,-3.02269 1.77835,1.2024 3.94087,3.29811 c 2.23799,-9.29131 1.37223,-19.27074 3.61247,-28.57132 l -8.70277,2.57074 -18.39073,5.63941 c 0.94633,1.77282 3.60122,3.63141 5.25449,4.76189 v 0.16419 l -5.46545,6.07552 -9.83319,11.16581 -6.22423,7.06073 -4.0928,4.92609 -6.58954,-7.38914 -12.66897,-14.44986 -4.64545,-5.25451 -1.614542,-2.12817 1.216452,-1.45883 3.77667,-3.47372 c -6.750505,-1.39706 -13.449743,-4.03439 -20.032773,-6.07972 -2.282226,-0.70907 -4.699837,-1.78178 -7.060733,-2.13043 z" transform="translate(-56.264751,-77.566536)"/>
</svg>
